<svg width="240" height="80" viewBox="0 0 240 80" xmlns="http://www.w3.org/2000/svg">
  <rect x="0" y="10" width="60" height="60" rx="12" fill="#4285F4"></rect>
  <path d="M30 25c2.5 0 4.5 2 4.5 4.5v11c0 2.5-2 4.5-4.5 4.5s-4.5-2-4.5-4.5v-11c0-2.5 2-4.5 4.5-4.5zm7 12c0 3.9-3.1 7-7 7s-7-3.1-7-7h-3c0 4.8 3.4 8.7 8 9.7v3.3h4v-3.3c4.6-1 8-4.9 8-9.7h-3z" fill="#fff"></path>
  <text x="70" y="42" font-family="Arial, sans-serif" font-size="28" fill="#222" font-weight="bold">
    Convo
  </text>
  <text x="70" y="68" font-family="Arial, sans-serif" font-size="28" fill="#222" font-weight="bold">
    Learn
  </text>
</svg>
